/vscmnt/brussel_pixiu_data/_data_brussel/112/vsc11236/PredSimResults/SUBJ07opt3D/expIG/worker_07.mot
version=1
nRows=11
nColumns=50
inDegrees=yes
endheader
                time	         pelvis_tilt	         pelvis_list	     pelvis_rotation	           pelvis_tx	           pelvis_ty	           pelvis_tz	       hip_flexion_r	     hip_adduction_r	      hip_rotation_r	        knee_angle_r	       ankle_angle_r	         mtp_angle_r	       hip_flexion_l	     hip_adduction_l	      hip_rotation_l	        knee_angle_l	       ankle_angle_l	         mtp_angle_l	    lumbar_extension	      lumbar_bending	     lumbar_rotation	 ercspn_r/activation	 intobl_r/activation	 extobl_r/activation	    abd_r/activation	    add_r/activation	hamstrings_r/activation	bifemsh_r/activation	glut_max_r/activation	iliopsoas_r/activation	rect_fem_r/activation	  vasti_r/activation	gastroc_r/activation	 soleus_r/activation	tib_ant_r/activation	 ercspn_l/activation	 intobl_l/activation	 extobl_l/activation	    abd_l/activation	    add_l/activation	hamstrings_l/activation	bifemsh_l/activation	glut_max_l/activation	iliopsoas_l/activation	rect_fem_l/activation	  vasti_l/activation	gastroc_l/activation	 soleus_l/activation	tib_ant_l/activation	
          0.55822523	         -4.03449485	          0.31484784	         -8.18035482	          0.66987027	          0.84999365	          0.01277992	        -14.34048756	         -0.23547017	          3.38067024	         -9.35785353	          7.93575795	         28.21804405	         29.69529638	         -2.13322917	         -4.24798093	         -6.83417100	          1.90326033	          0.26796840	        -10.43998254	          1.47672796	          1.27602521	          0.12254980	          0.00999999	          0.00999999	          0.03202727	          0.01000003	          0.01644753	          0.13069309	          0.01668538	          0.11263944	          0.01186074	          0.01056106	          0.13476575	          0.29373415	          0.01668539	          0.12152771	          0.12822261	          0.00999999	          0.01000001	          0.13621594	          0.06119431	          0.10311157	          0.08463031	          0.02974717	          0.01186074	          0.00999999	          0.00999999	          0.00999999	          0.39069492	
          0.56938973	         -4.04347401	          0.28796883	         -8.20282898	          0.68555112	          0.84853404	          0.01239009	        -14.80603023	         -0.33449419	          3.04920385	        -10.36736892	          6.96730822	         29.74084812	         29.44067256	         -1.92130447	         -3.96861493	         -8.22800843	          1.56994446	          0.25113361	        -10.33373220	          1.07852207	          1.48300500	          0.13281388	          0.00999999	          0.00999999	          0.02700274	          0.02511030	          0.01386722	          0.11018956	          0.01406773	          0.09496824	          0.00999999	          0.00999999	          0.11362329	          0.27557167	          0.01406773	          0.10246207	          0.11599802	          0.00999999	          0.00999999	          0.11484597	          0.06124184	          0.12329065	          0.12552075	          0.02508034	          0.00999999	          0.00999999	          0.01406773	          0.01186074	          0.42859076	
          0.58055424	         -4.04528777	          0.25253192	         -8.17723323	          0.70138958	          0.84727237	          0.01191056	        -15.12963952	         -0.41331243	          2.67843245	        -11.65470284	          5.89389547	         31.19719365	         29.11066345	         -1.76459156	         -3.70702257	         -9.53081082	          1.14109699	          0.24647521	        -10.22344728	          0.68978135	          1.68259323	          0.14431095	          0.00999999	          0.00999999	          0.02276646	          0.02117092	          0.01169173	          0.09290269	          0.01186074	          0.08006934	          0.01000000	          0.00999999	          0.09579772	          0.25304157	          0.01186074	          0.13483461	          0.09779990	          0.00999999	          0.09377176	          0.13315878	          0.05850328	          0.10903621	          0.11954134	          0.02114566	          0.00999999	          0.00999999	          0.01186074	          0.00999999	          0.49933656	
          0.59171874	         -4.04142702	          0.19485408	         -8.10767685	          0.71719516	          0.84636590	          0.01133546	        -15.22853508	         -0.45739216	          2.28243127	        -13.33561560	          4.69581691	         32.53064708	         28.79067886	         -1.63022080	         -3.49444110	        -10.84022997	          0.68271978	          0.22758791	        -10.12990733	          0.32502532	          1.87279806	          0.18055903	          0.00999999	          0.00999999	          0.01919479	          0.02889932	          0.01094160	          0.07832783	          0.00999999	          0.06750782	          0.01000001	          0.01000000	          0.08076868	          0.22326731	          0.00999999	          0.14663759	          0.08245675	          0.00999999	          0.14240289	          0.15820228	          0.05356679	          0.09193028	          0.14561228	          0.01782826	          0.00999999	          0.00999999	          0.00999999	          0.00999999	          0.52721637	
          0.60288325	         -4.03211316	          0.12334064	         -7.99931267	          0.73282255	          0.84596156	          0.01067758	        -15.02571112	         -0.47542722	          1.86333961	        -15.51987696	          3.38578369	         33.60048341	         28.54035154	         -1.50606832	         -3.31426252	        -12.30506921	          0.47756063	          0.20670099	        -10.06166985	         -0.02439503	          2.05145423	          0.22194510	          0.00999999	          0.00999999	          0.01618345	          0.04910516	          0.01191538	          0.06603952	          0.00999999	          0.05691699	          0.00999999	          0.00999999	          0.06809744	          0.18824046	          0.00999999	          0.15423101	          0.06952069	          0.00999999	          0.18399379	          0.18470345	          0.04845937	          0.07750798	          0.17086873	          0.01503131	          0.00999999	          0.02041295	          0.00999999	          0.00999999	          0.52246332	
          0.61404775	         -4.01833204	          0.04183155	         -7.85289205	          0.74815758	          0.84619901	          0.00994982	        -14.44922224	         -0.47186502	          1.40975019	        -18.30702394	          1.97757835	         34.19388439	         28.35633591	         -1.38975907	         -3.16626056	        -13.91066350	          0.59914517	          0.18611062	        -10.02285345	         -0.35986381	          2.21581880	          0.24698172	          0.00999999	          0.00999999	          0.01364454	          0.08149904	          0.01266768	          0.05567904	          0.00999999	          0.04798768	          0.00999999	          0.00999999	          0.05741411	          0.15870872	          0.00999999	          0.16344938	          0.05861407	          0.00999999	          0.20451003	          0.21003836	          0.04662159	          0.06534829	          0.18336897	          0.01267315	          0.00999999	          0.04009124	          0.00999999	          0.00999999	          0.49046946	
          0.62521225	         -4.00109833	         -0.04994018	         -7.66890262	          0.76318108	          0.84711661	          0.00917399	        -13.45834225	         -0.45169571	          0.92099965	        -21.74279631	          0.43615695	         34.14245769	         28.16312781	         -1.27731871	         -3.03834194	        -15.51098834	          1.03386220	          0.17855016	        -10.00636923	         -0.67980347	          2.36249438	          0.25712305	          0.00999999	          0.00999999	          0.01150395	          0.11090363	          0.01300433	          0.04694395	          0.00999999	          0.04045922	          0.00999999	          0.00999999	          0.04840681	          0.13381001	          0.00999999	          0.16457968	          0.04941851	          0.00999999	          0.21097721	          0.22315476	          0.04542822	          0.05509625	          0.18817660	          0.01068495	          0.00999999	          0.05844111	          0.00999999	          0.00999999	          0.42404403	
          0.63637676	         -3.98198247	         -0.15009467	         -7.44781736	          0.77790862	          0.84866275	          0.00836665	        -12.04826235	         -0.42524884	          0.42180365	        -25.77436487	         -1.39751207	         33.44736668	         27.87346589	         -1.16060133	         -2.90529668	        -16.93423591	          1.71973221	          0.21608598	        -10.00317471	         -0.98477809	          2.48825045	          0.26533864	          0.00999999	          0.00999999	          0.00999999	          0.12936876	          0.01096466	          0.03957924	          0.00999999	          0.03411186	          0.00999999	          0.00999999	          0.04081260	          0.11281749	          0.00999999	          0.13952849	          0.04166559	          0.00999999	          0.20400453	          0.22349927	          0.04921958	          0.04645258	          0.17686710	          0.00999999	          0.00999999	          0.08479735	          0.00999999	          0.00999999	          0.35751872	
          0.64754126	         -3.96329762	         -0.25620383	         -7.18966827	          0.79233849	          0.85073840	          0.00752245	        -10.24757113	         -0.40033142	         -0.04848200	        -30.27493423	         -3.61448667	         32.01373040	         27.41946353	         -1.02982963	         -2.73477481	        -18.02476944	          2.48687042	          0.31859273	        -10.01094414	         -1.27147167	          2.59347035	          0.25737792	          0.00999999	          0.00999999	          0.00999999	          0.13580353	          0.01000006	          0.03336993	          0.00999999	          0.02876029	          0.00999999	          0.00999999	          0.03440980	          0.09511834	          0.03358356	          0.11763884	          0.03512896	          0.00999999	          0.20309862	          0.20966317	          0.05885687	          0.03916496	          0.14911965	          0.00999999	          0.00999999	          0.10501247	          0.00999999	          0.00999999	          0.30461594	
          0.65870577	         -3.94677699	         -0.36341133	         -6.89674669	          0.80644574	          0.85317527	          0.00665187	         -8.12716380	         -0.37217845	         -0.44373117	        -35.09510523	         -5.89851893	         29.37979228	         26.78839012	         -0.88102040	         -2.50572819	        -18.73343009	          3.20237278	          0.47440238	        -10.03251289	         -1.54174577	          2.67760496	          0.26401023	          0.03564047	          0.00999999	          0.01021948	          0.11449825	          0.01000024	          0.02813475	          0.01406773	          0.02424828	          0.01217329	          0.00999999	          0.02901148	          0.08019588	          0.19160116	          0.09918330	          0.02961782	          0.00999999	          0.20888230	          0.17958820	          0.06722872	          0.03302065	          0.12572531	          0.00999999	          0.00999999	          0.12313157	          0.00999999	          0.00999999	          0.26723897	
          0.66987027	         -3.93294762	         -0.46073746	         -6.57565534	          0.82020825	          0.85575943	          0.00578817	         -5.82451218	         -0.30852090	         -0.72761710	        -40.01906168	         -7.35358784	         25.63400149	         26.00835905	         -0.71436921	         -2.23424023	        -19.10733794	          3.86277495	          0.68010427	        -10.06948139	         -1.80337913	          2.73715770	          0.26254759	          0.03547912	          0.01186074	          0.01186074	          0.09653542	          0.01000009	          0.02372089	          0.01186074	          0.02044414	          0.01026351	          0.00999999	          0.02446007	          0.06761451	          0.19789964	          0.08362312	          0.02497129	          0.00999999	          0.20035138	          0.15141386	          0.07053271	          0.02784027	          0.10600114	          0.00999999	          0.00999999	          0.13767357	          0.00999999	          0.00999999	          0.24032424	
